<svg xmlns="http://www.w3.org/2000/svg" version="1.1" x="0px" y="0px" viewBox="0 0 100 100">
    <path d="m87.418 86.031c0-0.050781 0.015625-0.10156 0.011719-0.15625l-8.7109-68.438c-0.003906-0.039062-0.027344-0.070312-0.035156-0.10938-0.011719-0.058594-0.03125-0.10938-0.050782-0.16406-0.035156-0.085937-0.078124-0.16016-0.13281-0.23437-0.019531-0.027344-0.027344-0.0625-0.050781-0.089844-0.011719-0.015625-0.03125-0.019532-0.046875-0.035156-0.070313-0.070313-0.15234-0.125-0.24219-0.17578-0.039062-0.019531-0.070312-0.050781-0.10938-0.066406-0.13281-0.054688-0.27344-0.089844-0.42188-0.089844h-6.3281c-0.24609-3.5625-1.9688-6.1523-4.1992-6.1523-2.2305 0-3.9531 2.5898-4.1992 6.1523h-4.125c-0.24609-3.5625-1.9688-6.1523-4.1992-6.1523s-3.9531 2.5898-4.1992 6.1523h-4.125c-0.24609-3.5625-1.9688-6.1523-4.1992-6.1523-2.2305 0-3.9531 2.5898-4.1992 6.1523h-4.125c-0.24609-3.5625-1.9688-6.1523-4.1992-6.1523s-3.9531 2.5898-4.1992 6.1523h-3.8281c-0.14844 0-0.28516 0.03125-0.41406 0.082032-0.042969 0.019531-0.078125 0.050781-0.12109 0.074218-0.078125 0.042969-0.15625 0.085938-0.22266 0.14844-0.039063 0.039062-0.066406 0.085937-0.10156 0.12891-0.050781 0.0625-0.10156 0.125-0.13672 0.19922-0.027343 0.054687-0.035156 0.11328-0.050781 0.17188s-0.046875 0.10938-0.054687 0.17188l-7.8359 70.996c-0.035156 0.3125 0.066406 0.62109 0.27344 0.85547 0.21094 0.23438 0.50781 0.36719 0.82031 0.36719h56.113c0.007812 0 0.015624-0.003907 0.023437-0.003907 0.035156 0 0.074219-0.003906 0.10938-0.007812l16.582-2.5586c0.011719 0 0.019531-0.011718 0.035157-0.011718 0.074218-0.015626 0.14062-0.046876 0.21094-0.078126 0.0625-0.027343 0.12891-0.042968 0.18359-0.078124 0.050781-0.03125 0.089843-0.082032 0.13281-0.12109 0.0625-0.054688 0.12109-0.10938 0.16797-0.17578 0.007812-0.011718 0.019531-0.019531 0.027344-0.03125 0.027344-0.042968 0.03125-0.089843 0.050781-0.13672 0.035156-0.074219 0.066406-0.14062 0.085937-0.22266 0.015626-0.074219 0.015626-0.14453 0.015626-0.21875zm-8.7812-6.2305c-0.42578-0.27344-0.98438-0.21875-1.3516 0.12891l-6.0703 5.7422 6.1875-56.047c0-0.015625 0.007812-0.027344 0.007812-0.042969 0-0.003906-0.003906-0.007812-0.003906-0.011719l0.29297-2.6484 7.2422 56.902-6.3086-4.0234zm4.6406 5.5742-10.199 1.5742 5.1016-4.8242 5.0977 3.2539zm-16.18-72.848c0.74219 0 1.7734 1.5156 1.9844 3.9492h-3.9688c0.21094-2.4336 1.2422-3.9492 1.9844-3.9492zm-12.52 0c0.74219 0 1.7734 1.5156 1.9844 3.9492h-3.9688c0.21094-2.4336 1.2422-3.9492 1.9844-3.9492zm-12.52 0c0.74219 0 1.7734 1.5156 1.9844 3.9492h-3.9688c0.21094-2.4336 1.2422-3.9492 1.9844-3.9492zm-12.52 0c0.74219 0 1.7734 1.5156 1.9844 3.9492h-3.9688c0.21094-2.4336 1.2422-3.9492 1.9844-3.9492zm-4.1602 6.1523c0.35156 3.3359 2.0195 5.7188 4.1602 5.7188 1.3359 0 2.5547-0.95703 3.3359-2.625 0.25781-0.55078 0.023438-1.207-0.53125-1.4648-0.55078-0.25781-1.207-0.023438-1.4648 0.53125-0.39453 0.83594-0.90625 1.3555-1.3398 1.3555-0.69531 0-1.6445-1.3398-1.9336-3.5117h10.293c0.35156 3.3359 2.0234 5.7188 4.1602 5.7188 1.3359 0 2.5547-0.95703 3.3359-2.625 0.25781-0.55078 0.023438-1.207-0.53125-1.4648-0.55078-0.25781-1.207-0.023438-1.4648 0.53125-0.39453 0.83594-0.90625 1.3555-1.3398 1.3555-0.69531 0-1.6445-1.3398-1.9336-3.5117h10.293c0.35156 3.3359 2.0195 5.7188 4.1602 5.7188 1.3359 0 2.5547-0.95703 3.3359-2.625 0.25781-0.55078 0.023438-1.207-0.53125-1.4648-0.55078-0.25781-1.207-0.023437-1.4648 0.53125-0.39453 0.83594-0.90625 1.3555-1.3398 1.3555-0.69531 0-1.6445-1.3398-1.9336-3.5117h10.293c0.35156 3.3359 2.0195 5.7188 4.1602 5.7188 1.3359 0 2.5547-0.95703 3.3359-2.625 0.25781-0.55078 0.023437-1.207-0.53125-1.4648-0.55078-0.25781-1.207-0.023437-1.4648 0.53125-0.39453 0.83594-0.90625 1.3555-1.3398 1.3555-0.69531 0-1.6445-1.3398-1.9336-3.5117h11.23l-1.082 9.7969-53.898-0.015626 1.082-9.7969zm-4.2031 12h53.895l-6.2695 56.789-53.898 0.003906 6.2695-56.789zm11.535 7.8906c-0.17969-0.19531-0.43359-0.30859-0.69922-0.30859h-5.5156c-0.48828 0-0.89453 0.37109-0.94141 0.85547l-0.51953 5.5156c-0.023437 0.26563 0.0625 0.52734 0.24219 0.72266 0.17969 0.19531 0.43359 0.30859 0.69922 0.30859h5.5156c0.48828 0 0.89453-0.37109 0.94141-0.85547l0.51953-5.5156c0.023437-0.26562-0.0625-0.52734-0.24219-0.72266zm-2.0781 5.207h-3.6172l0.33984-3.625h3.6172zm13.105-5.207c-0.17969-0.19531-0.43359-0.30859-0.69922-0.30859h-5.5156c-0.48828 0-0.89453 0.37109-0.94141 0.85547l-0.51953 5.5156c-0.023438 0.26563 0.0625 0.52734 0.24219 0.72266 0.17969 0.19531 0.43359 0.30859 0.69922 0.30859h5.5156c0.48828 0 0.89453-0.37109 0.94141-0.85547l0.51953-5.5156c0.023437-0.26562-0.0625-0.52734-0.24219-0.72266zm-2.0781 5.207h-3.6172l0.33984-3.625h3.6172zm13.105-5.207c-0.17969-0.19531-0.43359-0.30859-0.69922-0.30859h-5.5156c-0.48828 0-0.89453 0.37109-0.94141 0.85547l-0.51953 5.5156c-0.023438 0.26563 0.0625 0.52734 0.24219 0.72266 0.17969 0.19531 0.43359 0.30859 0.69922 0.30859h5.5156c0.48828 0 0.89453-0.37109 0.94141-0.85547l0.51953-5.5156c0.023438-0.26562-0.0625-0.52734-0.24219-0.72266zm-2.0781 5.207h-3.6172l0.33984-3.625h3.6172zm12.41-5.5156h-5.5156c-0.48828 0-0.89453 0.37109-0.94141 0.85547l-0.51953 5.5156c-0.023438 0.26563 0.0625 0.52734 0.24219 0.72266 0.17969 0.19531 0.43359 0.30859 0.69922 0.30859h5.5156c0.48828 0 0.89453-0.37109 0.94141-0.85547l0.51953-5.5156c0.023438-0.26562-0.0625-0.52734-0.24219-0.72266-0.17969-0.19531-0.43359-0.30859-0.69922-0.30859zm-1.3789 5.5156h-3.6172l0.33984-3.625h3.6172zm-32.746 5.5156h-5.5156c-0.48828 0-0.89453 0.37109-0.94141 0.85547l-0.51953 5.5156c-0.023438 0.26563 0.0625 0.52734 0.24219 0.72266 0.17969 0.19531 0.43359 0.30859 0.69922 0.30859h5.5156c0.48828 0 0.89453-0.37109 0.94141-0.85547l0.51953-5.5156c0.023438-0.26562-0.0625-0.52734-0.24219-0.72266-0.17969-0.19531-0.43359-0.30859-0.69922-0.30859zm-1.3789 5.5156h-3.6172l0.33984-3.625h3.6172zm12.41-5.5156h-5.5156c-0.48828 0-0.89453 0.37109-0.94141 0.85547l-0.51953 5.5156c-0.023438 0.26563 0.0625 0.52734 0.24219 0.72266 0.17969 0.19531 0.43359 0.30859 0.69922 0.30859h5.5156c0.48828 0 0.89453-0.37109 0.94141-0.85547l0.51953-5.5156c0.023438-0.26562-0.0625-0.52734-0.24219-0.72266-0.17969-0.19531-0.43359-0.30859-0.69922-0.30859zm-1.3789 5.5156h-3.6172l0.33984-3.625h3.6172zm12.41-5.5156h-5.5156c-0.48828 0-0.89453 0.37109-0.94141 0.85547l-0.51953 5.5156c-0.023438 0.26563 0.0625 0.52734 0.24219 0.72266 0.17969 0.19531 0.43359 0.30859 0.69922 0.30859h5.5156c0.48828 0 0.89453-0.37109 0.94141-0.85547l0.51953-5.5156c0.023438-0.26562-0.0625-0.52734-0.24219-0.72266-0.17969-0.19531-0.43359-0.30859-0.69922-0.30859zm-1.3789 5.5156h-3.6172l0.33984-3.625h3.6172zm12.41-5.5156h-5.5156c-0.48828 0-0.89453 0.37109-0.94141 0.85547l-0.51953 5.5156c-0.023438 0.26563 0.0625 0.52734 0.24219 0.72266 0.17969 0.19531 0.43359 0.30859 0.69922 0.30859h5.5156c0.48828 0 0.89453-0.37109 0.94141-0.85547l0.51953-5.5156c0.023438-0.26562-0.0625-0.52734-0.24219-0.72266-0.17969-0.19531-0.43359-0.30859-0.69922-0.30859zm-1.3789 5.5156h-3.6172l0.33984-3.625h3.6172zm-32.746 5.5156h-5.5156c-0.48828 0-0.89453 0.37109-0.94141 0.85547l-0.51953 5.5156c-0.023438 0.26563 0.0625 0.52734 0.24219 0.72266 0.17969 0.19531 0.43359 0.30859 0.69922 0.30859h5.5156c0.48828 0 0.89453-0.37109 0.94141-0.85547l0.51953-5.5156c0.023438-0.26562-0.0625-0.52734-0.24219-0.72266-0.17969-0.19531-0.43359-0.30859-0.69922-0.30859zm-1.3789 5.5156h-3.6172l0.33984-3.625h3.6172zm12.41-5.5156h-5.5156c-0.48828 0-0.89453 0.37109-0.94141 0.85547l-0.51953 5.5156c-0.023438 0.26563 0.0625 0.52734 0.24219 0.72266 0.17969 0.19531 0.43359 0.30859 0.69922 0.30859h5.5156c0.48828 0 0.89453-0.37109 0.94141-0.85547l0.51953-5.5156c0.023438-0.26562-0.0625-0.52734-0.24219-0.72266-0.17969-0.19531-0.43359-0.30859-0.69922-0.30859zm-1.3789 5.5156h-3.6172l0.33984-3.625h3.6172zm12.41-5.5156h-5.5156c-0.48828 0-0.89453 0.37109-0.94141 0.85547l-0.51953 5.5156c-0.023438 0.26563 0.0625 0.52734 0.24219 0.72266 0.17969 0.19531 0.43359 0.30859 0.69922 0.30859h5.5156c0.48828 0 0.89453-0.37109 0.94141-0.85547l0.51953-5.5156c0.023438-0.26562-0.0625-0.52734-0.24219-0.72266-0.17969-0.19531-0.43359-0.30859-0.69922-0.30859zm-1.3789 5.5156h-3.6172l0.33984-3.625h3.6172zm12.41-5.5156h-5.5156c-0.48828 0-0.89453 0.37109-0.94141 0.85547l-0.51953 5.5156c-0.023438 0.26563 0.0625 0.52734 0.24219 0.72266 0.17969 0.19531 0.43359 0.30859 0.69922 0.30859h5.5156c0.48828 0 0.89453-0.37109 0.94141-0.85547l0.51953-5.5156c0.023438-0.26562-0.0625-0.52734-0.24219-0.72266-0.17969-0.19531-0.43359-0.30859-0.69922-0.30859zm-1.3789 5.5156h-3.6172l0.33984-3.625h3.6172zm-32.746 5.5156h-5.5156c-0.48828 0-0.89453 0.37109-0.94141 0.85547l-0.51953 5.5156c-0.023438 0.26563 0.0625 0.52734 0.24219 0.72266 0.17969 0.19531 0.43359 0.30859 0.69922 0.30859h5.5156c0.48828 0 0.89453-0.37109 0.94141-0.85547l0.51953-5.5156c0.023438-0.26562-0.0625-0.52734-0.24219-0.72266-0.17969-0.19531-0.43359-0.30859-0.69922-0.30859zm-1.3789 5.5156h-3.6172l0.33984-3.625h3.6172zm12.41-5.5156h-5.5156c-0.48828 0-0.89453 0.37109-0.94141 0.85547l-0.51953 5.5156c-0.023438 0.26563 0.0625 0.52734 0.24219 0.72266 0.17969 0.19531 0.43359 0.30859 0.69922 0.30859h5.5156c0.48828 0 0.89453-0.37109 0.94141-0.85547l0.51953-5.5156c0.023438-0.26562-0.0625-0.52734-0.24219-0.72266-0.17969-0.19531-0.43359-0.30859-0.69922-0.30859zm-1.3789 5.5156h-3.6172l0.33984-3.625h3.6172zm12.41-5.5156h-5.5156c-0.48828 0-0.89453 0.37109-0.94141 0.85547l-0.51953 5.5156c-0.023438 0.26563 0.0625 0.52734 0.24219 0.72266 0.17969 0.19531 0.43359 0.30859 0.69922 0.30859h5.5156c0.48828 0 0.89453-0.37109 0.94141-0.85547l0.51953-5.5156c0.023438-0.26562-0.0625-0.52734-0.24219-0.72266-0.17969-0.19531-0.43359-0.30859-0.69922-0.30859zm-1.3789 5.5156h-3.6172l0.33984-3.625h3.6172zm12.41-5.5156h-5.5156c-0.48828 0-0.89453 0.37109-0.94141 0.85547l-0.51953 5.5156c-0.023438 0.26563 0.0625 0.52734 0.24219 0.72266 0.17969 0.19531 0.43359 0.30859 0.69922 0.30859h5.5156c0.48828 0 0.89453-0.37109 0.94141-0.85547l0.51953-5.5156c0.023438-0.26562-0.0625-0.52734-0.24219-0.72266-0.17969-0.19531-0.43359-0.30859-0.69922-0.30859zm-1.3789 5.5156h-3.6172l0.33984-3.625h3.6172z"/>
</svg>