<svg xmlns="http://www.w3.org/2000/svg" version="1.1" x="0px" y="0px" viewBox="0 0 100 100">
    <path d="m89.512 73.957-8.6953-44.414c-0.32031-1.6406-1.9219-2.9766-3.5664-2.9766h-9.6133c-0.19141-3.0391-1.9141-5.3477-4.082-5.3477-2.168 0-3.8906 2.3086-4.082 5.3477h-5.7422c-0.19141-3.0391-1.9141-5.3477-4.082-5.3477-2.168 0-3.8906 2.3086-4.082 5.3477h-5.6992c-0.19141-3.0391-1.9141-5.3477-4.082-5.3477-2.168 0-3.8906 2.3086-4.082 5.3477h-10.531c-1.6758 0-3.1992 1.3164-3.4648 2.9961l-7.2305 45.688c-0.15234 0.95703 0.12891 1.9805 0.73438 2.6719 0.48437 0.55078 1.1328 0.85156 1.8359 0.85156h0.070313l16.156-0.45703c0.46484 0.27734 0.97266 0.45703 1.5078 0.45703h0.074219l56.082-1.5977c0.85547-0.023437 1.5938-0.375 2.0859-0.98828 0.48437-0.60938 0.66406-1.3984 0.5-2.2305zm-25.957-51.461c1.5352 0 2.832 2.125 2.832 4.6367 0 2.1172-0.91406 3.9883-2.1602 4.5-0.16797-0.17578-0.44531-0.58594-0.23047-1.1719 0.90234-0.31641 1.5391-1.5938 1.5664-3.2305 0-0.007813 0.003906-0.015625 0.003906-0.023438 0-0.003906-0.003906-0.007812-0.003906-0.015625 0-0.019531 0.003906-0.039062 0.003906-0.058594 0-1.9414-0.86719-3.4062-2.0117-3.4062-1.0312 0-1.832 1.1914-1.9805 2.8477h-0.8125c0.17578-2.2578 1.3789-4.0742 2.793-4.0742zm0.70703 4.0742h-1.4141c0.12109-1.0312 0.54297-1.5742 0.70703-1.5742 0.16406 0 0.58594 0.54297 0.70703 1.5742zm-14.617-4.0742c1.5352 0 2.832 2.125 2.832 4.6367 0 2.1172-0.91406 3.9883-2.1602 4.5-0.16797-0.17578-0.44531-0.58594-0.23047-1.1719 0.90234-0.31641 1.5391-1.5938 1.5664-3.2305 0-0.007813 0.003906-0.015625 0.003906-0.023438 0-0.003906-0.003906-0.007812-0.003906-0.015625 0-0.019531 0.003906-0.039062 0.003906-0.058594 0-1.9414-0.86719-3.4062-2.0117-3.4062-1.0312 0-1.832 1.1914-1.9805 2.8477h-0.8125c0.17578-2.2578 1.3789-4.0742 2.7969-4.0742zm0.70703 4.0742h-1.4141c0.12109-1.0312 0.54297-1.5742 0.70703-1.5742 0.16406 0 0.58594 0.54297 0.70703 1.5742zm-14.57-4.0742c1.5352 0 2.832 2.125 2.832 4.6367 0 1.6758-0.54688 3.293-1.3984 4.1172-0.30859 0.30078-0.63281 0.46875-0.96094 0.49609-0.12109-0.17578-0.29688-0.62109-0.26172-1.0195 0.003906-0.054687 0.03125-0.16797 0.082031-0.23047 1.0039-0.21875 1.7305-1.5352 1.7578-3.2617 0-0.007813 0.003907-0.015625 0.003907-0.023437 0-0.003907-0.003907-0.007813-0.003907-0.015626 0-0.019531 0.003907-0.039062 0.003907-0.058593 0-1.9414-0.88281-3.4062-2.0547-3.4062-1.0547 0-1.8711 1.1914-2.0234 2.8477h-0.76953c0.17578-2.2578 1.3789-4.0742 2.793-4.0742zm0.74609 4.0742h-1.5c0.12109-1.0234 0.55469-1.5742 0.75-1.5742 0.19531 0 0.625 0.55078 0.75 1.5742zm-9.9531 1.2695h9.9336c-0.14453 0.92578-0.54297 1.4258-0.72656 1.4258-0.011719 0-0.023438 0.007813-0.039062 0.007813-0.042969 0.003906-0.082032 0.015624-0.125 0.023437-0.042969 0.011719-0.082032 0.019531-0.12109 0.039063-0.011719 0.007812-0.023438 0.003906-0.035156 0.011718-0.023438 0.011719-0.035157 0.039063-0.058594 0.050782-0.035156 0.027343-0.070313 0.054687-0.097656 0.085937-0.51953 0.41797-0.72266 1.1719-0.49609 2.0586 0.17578 0.69531 0.60156 1.4453 1.2695 1.4648h0.074219c0.69531 0 1.3672-0.29687 1.9492-0.85937 0.97266-0.94141 1.6172-2.5547 1.7539-4.3203h10.477c-0.14062 0.93359-0.53125 1.4258-0.68359 1.4258-0.027344 0-0.050782 0.011719-0.078126 0.015625-0.042968 0.003907-0.085937 0.011719-0.12891 0.027344-0.039062 0.011719-0.070312 0.03125-0.10547 0.054687-0.035157 0.019532-0.070313 0.039063-0.10156 0.066407-0.03125 0.027343-0.058594 0.0625-0.085937 0.097656-0.015626 0.023437-0.039063 0.035156-0.054688 0.0625-0.007812 0.015625-0.011719 0.03125-0.019531 0.042969-0.007813 0.015625-0.015625 0.035156-0.019531 0.050781-0.46875 0.89844-0.41016 1.875 0.17969 2.6406 0.15625 0.20312 0.54688 0.63672 0.99609 0.63672 0.058593 0 0.11719-0.007813 0.17969-0.023438 1.7695-0.46875 3.082-2.5625 3.2969-5.0977h10.535c-0.14063 0.93359-0.53125 1.4258-0.68359 1.4258-0.027344 0-0.050782 0.011719-0.078125 0.015625-0.042969 0.003907-0.085938 0.011719-0.12891 0.027344-0.039062 0.011719-0.070312 0.03125-0.10547 0.054687-0.035156 0.019532-0.070313 0.039063-0.10156 0.066407-0.03125 0.027343-0.058593 0.0625-0.085937 0.097656-0.015625 0.023437-0.039063 0.035156-0.054688 0.0625-0.007812 0.015625-0.007812 0.03125-0.015625 0.042969-0.007812 0.015625-0.015625 0.035156-0.019531 0.050781-0.46484 0.89844-0.41016 1.875 0.17969 2.6406 0.15625 0.20312 0.54687 0.63672 0.99609 0.63672 0.058594 0 0.11719-0.007813 0.17969-0.023438 1.7695-0.46875 3.082-2.5625 3.2969-5.0977h9.6367c1.0508 0 2.1133 0.89062 2.3203 1.9492l1.4688 7.5039-59.766 0.011719-1.4727-7.7461c-0.089844-0.48047 0.003906-0.91797 0.26953-1.2383 0.18359-0.22266 0.44531-0.37109 0.75-0.43359 0.11328-0.019531 0.22266-0.035156 0.33594-0.035156zm-13.5 49.664c-0.4375 0.011719-0.73828-0.21875-0.91406-0.41797-0.35547-0.40625-0.52734-1.0469-0.43359-1.6328l7.0508-44.543 8.4609 44.562c0.10547 0.54688 0.35938 1.1094 0.71484 1.6133zm74.945-2.1094c-0.25391 0.31641-0.65234 0.49609-1.1289 0.51172l-56.082 1.5977c-1.0117 0.023438-2.125-1.2227-2.3203-2.2695l-6.9648-36.672h59.766l6.9766 35.637c0.089844 0.45703 0.003906 0.88281-0.24609 1.1914zm-46.902-27.547c0.14062 0.70312 0.80469 1.25 1.5117 1.25h4.1562c0.38281 0 0.73438-0.16406 0.96484-0.44531 0.23438-0.28516 0.32422-0.67188 0.25-1.0547l-0.82422-4.1172c-0.14062-0.70312-0.80469-1.25-1.5117-1.25h-4.1562c-0.38281 0-0.73437 0.16406-0.96484 0.44531-0.23438 0.28516-0.32422 0.67188-0.25 1.0547zm4.5469-4.3477c0.09375 0 0.24219 0.10938 0.26563 0.23047l0.82031 4.0977h-4.1211c-0.09375 0-0.24219-0.10938-0.26562-0.23047l-0.82031-4.0977zm16.512 4.3477c0.14062 0.70312 0.80469 1.25 1.5117 1.25h4.1562c0.38281 0 0.73438-0.16406 0.96484-0.44531 0.23438-0.28516 0.32422-0.67188 0.25-1.0547l-0.82422-4.1172c-0.14062-0.70312-0.80469-1.25-1.5117-1.25h-4.1562c-0.38281 0-0.73438 0.16406-0.96484 0.44531-0.23437 0.28516-0.32422 0.67188-0.25 1.0547zm4.5469-4.3477c0.09375 0 0.24219 0.10938 0.26562 0.23047l0.82031 4.0977h-4.1211c-0.09375 0-0.24219-0.10938-0.26562-0.23047l-0.82031-4.0977zm-15.074 4.3477c0.14062 0.70312 0.80469 1.25 1.5117 1.25h4.1562c0.38281 0 0.73438-0.16406 0.96484-0.44531 0.23438-0.28516 0.32422-0.67188 0.25-1.0547l-0.82422-4.1172c-0.14062-0.70312-0.80469-1.25-1.5117-1.25h-4.1562c-0.38281 0-0.73437 0.16406-0.96484 0.44531-0.23438 0.28516-0.32422 0.67188-0.25 1.0547zm4.5469-4.3477c0.09375 0 0.24219 0.10938 0.26563 0.23047l0.82031 4.0977h-4.1211c-0.09375 0-0.24219-0.10938-0.26562-0.23047l-0.82031-4.0977zm-7.3086 16.094c0.38281 0 0.73438-0.16406 0.96484-0.44531 0.23438-0.28516 0.32422-0.67188 0.25-1.0547l-0.82422-4.1172c-0.14062-0.70312-0.80469-1.25-1.5117-1.25h-4.1562c-0.38281 0-0.73438 0.16406-0.96484 0.44531-0.23438 0.28516-0.32422 0.67188-0.25 1.0547l0.82422 4.1172c0.14062 0.70312 0.80469 1.25 1.5117 1.25zm-4.4219-1.5-0.82031-4.0977h4.1211c0.09375 0 0.24219 0.10938 0.26562 0.23047l0.82031 4.0977h-4.1211c-0.09375 0-0.24219-0.10938-0.26562-0.23047zm-6.1055 1.5c0.38281 0 0.73438-0.16406 0.96484-0.44531 0.23438-0.28516 0.32422-0.67188 0.25-1.0547l-0.82422-4.1172c-0.14062-0.70312-0.80469-1.25-1.5117-1.25h-4.1562c-0.38281 0-0.73438 0.16406-0.96484 0.44531-0.23438 0.28516-0.32422 0.67188-0.25 1.0547l0.82422 4.1172c0.14062 0.70312 0.80469 1.25 1.5117 1.25zm-4.4219-1.5-0.82031-4.0977h4.1211c0.09375 0 0.24219 0.10938 0.26562 0.23047l0.82031 4.0977h-4.1211c-0.09375 0-0.24219-0.10938-0.26562-0.23047zm36.008 1.5c0.38281 0 0.73438-0.16406 0.96484-0.44531 0.23438-0.28516 0.32422-0.67188 0.25-1.0547l-0.82422-4.1172c-0.14063-0.70312-0.80469-1.25-1.5117-1.25h-4.1562c-0.38281 0-0.73438 0.16406-0.96484 0.44531-0.23438 0.28516-0.32422 0.67188-0.25 1.0547l0.82422 4.1172c0.14062 0.70312 0.80469 1.25 1.5117 1.25zm-4.4219-1.5-0.82031-4.0977h4.1211c0.09375 0 0.24219 0.10938 0.26562 0.23047l0.82031 4.0977h-4.1211c-0.09375 0-0.24219-0.10938-0.26562-0.23047zm-6.1055 1.5c0.38281 0 0.73438-0.16406 0.96484-0.44531 0.23438-0.28516 0.32422-0.67188 0.25-1.0547l-0.82422-4.1172c-0.14062-0.70312-0.80469-1.25-1.5117-1.25h-4.1562c-0.38281 0-0.73438 0.16406-0.96484 0.44531-0.23438 0.28516-0.32422 0.67188-0.25 1.0547l0.82422 4.1172c0.14062 0.70312 0.80469 1.25 1.5117 1.25zm-4.4219-1.5-0.82031-4.0977h4.1211c0.09375 0 0.24219 0.10938 0.26562 0.23047l0.82031 4.0977h-4.1211c-0.09375 0-0.24219-0.10938-0.26562-0.23047zm-3.6172 6.3789c-0.14062-0.70312-0.80469-1.25-1.5117-1.25h-4.1562c-0.38281 0-0.73438 0.16406-0.96484 0.44531-0.23438 0.28516-0.32422 0.67188-0.25 1.0547l0.82422 4.1172c0.14063 0.70312 0.80469 1.25 1.5117 1.25h4.1562c0.38281 0 0.73438-0.16406 0.96484-0.44531 0.23438-0.28516 0.32422-0.67188 0.25-1.0547zm-4.5469 4.3438c-0.09375 0-0.24219-0.10938-0.26562-0.23047l-0.82031-4.0977h4.1211c0.09375 0 0.24219 0.10938 0.26562 0.23047l0.82031 4.0977zm-5.9805-4.3438c-0.14062-0.70312-0.80469-1.25-1.5117-1.25h-4.1562c-0.38281 0-0.73438 0.16406-0.96484 0.44531-0.23438 0.28516-0.32422 0.67188-0.25 1.0547l0.82422 4.1172c0.14062 0.70312 0.80469 1.25 1.5117 1.25h4.1562c0.38281 0 0.73437-0.16406 0.96484-0.44531 0.23438-0.28516 0.32422-0.67188 0.25-1.0547zm-4.5469 4.3438c-0.09375 0-0.24219-0.10938-0.26563-0.23047l-0.82031-4.0977h4.1211c0.09375 0 0.24219 0.10938 0.26562 0.23047l0.82031 4.0977zm36.133-4.3438c-0.14062-0.70312-0.80469-1.25-1.5117-1.25h-4.1562c-0.38281 0-0.73438 0.16406-0.96484 0.44531-0.23438 0.28516-0.32422 0.67188-0.25 1.0547l0.82422 4.1172c0.14062 0.70312 0.80469 1.25 1.5117 1.25h4.1562c0.38281 0 0.73438-0.16406 0.96484-0.44531 0.23438-0.28516 0.32422-0.67188 0.25-1.0547zm-4.5469 4.3438c-0.09375 0-0.24219-0.10938-0.26562-0.23047l-0.82031-4.0977h4.1211c0.09375 0 0.24219 0.10938 0.26562 0.23047l0.82031 4.0977zm-5.9805-4.3438c-0.14062-0.70312-0.80469-1.25-1.5117-1.25h-4.1562c-0.38281 0-0.73438 0.16406-0.96484 0.44531-0.23438 0.28516-0.32422 0.67188-0.25 1.0547l0.82422 4.1172c0.14063 0.70312 0.80469 1.25 1.5117 1.25h4.1562c0.38281 0 0.73438-0.16406 0.96484-0.44531 0.23438-0.28516 0.32422-0.67188 0.25-1.0547zm-4.5469 4.3438c-0.09375 0-0.24219-0.10938-0.26562-0.23047l-0.82031-4.0977h4.1211c0.09375 0 0.24219 0.10938 0.26562 0.23047l0.82031 4.0977zm14.73-20.969c0.14062 0.70312 0.80469 1.25 1.5117 1.25h4.1562c0.38281 0 0.73438-0.16406 0.96484-0.44531 0.23438-0.28516 0.32422-0.67188 0.25-1.0547l-0.82422-4.1172c-0.14062-0.70312-0.80469-1.25-1.5117-1.25h-4.1562c-0.38281 0-0.73438 0.16406-0.96484 0.44531-0.23438 0.28516-0.32422 0.67188-0.25 1.0547zm4.5469-4.3477c0.09375 0 0.24219 0.10938 0.26562 0.23047l0.82031 4.0977h-4.1211c-0.09375 0-0.24219-0.10938-0.26562-0.23047l-0.82031-4.0977zm5.9648 9.3477-2.2734 1.5156-0.078125-0.38672c-0.14062-0.70312-0.80469-1.25-1.5117-1.25h-4.1562c-0.38281 0-0.73438 0.16406-0.96484 0.44531-0.23438 0.28516-0.32422 0.67188-0.25 1.0547l0.82422 4.1172c0.14063 0.70312 0.80469 1.25 1.5117 1.25h4.1562c0.38281 0 0.73438-0.16406 0.96484-0.44531 0.23438-0.28516 0.32422-0.67188 0.25-1.0547l-0.41016-2.0469 2.8164-1.8789c0.36328-0.24219 0.46484-0.73828 0.21875-1.1016-0.24219-0.36719-0.73828-0.46484-1.1016-0.21875zm-2.7773 5.4766h-4.1211c-0.09375 0-0.24219-0.10938-0.26562-0.23047l-0.82031-4.0977h4.1211c0.09375 0 0.24219 0.10938 0.26562 0.23047l0.17969 0.90234-1.5938 1.0625-1.0742-1.5898c-0.24609-0.36328-0.73828-0.45703-1.1016-0.21484-0.36328 0.24609-0.46094 0.73828-0.21484 1.1016l1.5195 2.2461c0.15234 0.22656 0.40234 0.35156 0.66016 0.35156 0.15234 0 0.30469-0.042969 0.44141-0.13281l1.7031-1.1367 0.30078 1.5117z"/>
</svg>