<svg xmlns="http://www.w3.org/2000/svg" version="1.1" x="0px" y="0px" viewBox="0 0 100 100">
<path d="M62.7,69.9c-1.5,2-3.4,3.3-5.7,3.8c-4.1,0.9-8.2-1.2-10.9-4.9l9.9-2.1c0.9-0.2,1.4-1,1.2-1.9c-0.2-0.9-1-1.4-1.9-1.2     l-10.8,2.3c-0.4-0.9-0.7-1.8-0.9-2.8c-0.2-1-0.3-1.9-0.3-2.9l10.8-2.3c0.9-0.2,1.4-1,1.2-1.9c-0.2-0.9-1-1.4-1.9-1.2l-9.8,2.1     c0.3-1.3,0.6-2.5,1.2-3.7c1.5-2.8,3.8-4.7,6.6-5.3c2.1-0.4,4.2-0.2,6.2,0.9c0.8,0.4,1.8,0.1,2.2-0.7s0.1-1.8-0.7-2.2     c-2.7-1.3-5.5-1.7-8.3-1.1c-3.7,0.8-6.9,3.2-8.8,6.9c-1,1.8-1.6,3.8-1.8,5.9l-3.5,0.7c-0.9,0.2-1.4,1-1.2,1.9     c0.2,0.8,0.8,1.3,1.6,1.3c0.1,0,0.2,0,0.3,0l2.7-0.6c0.1,1,0.2,1.9,0.4,2.9c0.2,1,0.5,1.9,0.8,2.8l-2.7,0.6     c-0.9,0.2-1.4,1-1.2,1.9c0.2,0.8,0.8,1.3,1.6,1.3c0.1,0,0.2,0,0.3,0l3.5-0.7c2.8,4.7,7.5,7.6,12.4,7.6c0.8,0,1.7-0.1,2.5-0.3     c3-0.6,5.7-2.4,7.6-5c0.5-0.7,0.4-1.7-0.3-2.3C64.2,69.1,63.2,69.2,62.7,69.9z"/>
<path d="M82.1,85.1L70.2,29.2c-0.1-0.5-0.5-0.9-0.9-1.1l-17.5-7.8c0-1.4-0.2-2.8-0.5-4.1c-0.9-4.1-2.7-7.7-5.2-10.2     c-2.7-2.7-5.8-3.9-8.8-3.2c-3,0.6-5.4,2.9-6.7,6.5c-1.3,3.3-1.5,7.4-0.6,11.5c0.3,1.4,0.7,2.7,1.2,4L18.3,38.9     c-0.3,0.4-0.5,0.9-0.4,1.4l11.9,55.9c0.1,0.4,0.3,0.8,0.7,1c0.3,0.2,0.6,0.3,0.9,0.3c0.1,0,0.2,0,0.3,0L80.8,87     C81.7,86.8,82.3,86,82.1,85.1z M33.1,20c-0.7-3.5-0.6-6.9,0.5-9.7c0.9-2.5,2.5-4.1,4.4-4.5c1.9-0.4,3.9,0.4,5.8,2.3     c2.1,2.1,3.6,5.2,4.4,8.6c0.1,0.7,0.2,1.3,0.3,2l-7.5-3.3c-0.6-0.3-1.4-0.1-1.9,0.4l-5.5,6.1C33.4,21.3,33.2,20.6,33.1,20z      M32.6,94L21.3,40.4l11.4-12.7c2.5,4,6,6.5,9.6,6.5c0.5,0,1.1-0.1,1.6-0.2c0.9-0.2,1.4-1,1.2-1.9c-0.2-0.9-1-1.4-1.9-1.2     c-2.9,0.6-6.1-1.8-8.3-5.7l5.7-6.3l26.5,11.8l11.4,53.5L32.6,94z"/>
</svg>